<mxfile host="app.diagrams.net" agent="Mozilla/5.0 (X11; Linux x86_64; rv:132.0) Gecko/20100101 Firefox/132.0" version="24.9.1">
  <diagram name="Page-1" id="T8_Pfgg00Lvm1iwahL-D">
    <mxGraphModel dx="683" dy="362" grid="1" gridSize="10" guides="1" tooltips="1" connect="1" arrows="1" fold="1" page="1" pageScale="1" pageWidth="850" pageHeight="1100" background="none" math="0" shadow="0">
      <root>
        <mxCell id="0" />
        <mxCell id="1" parent="0" />
        <mxCell id="sveesTRRniiYQOb-pHVm-175" value="" style="ellipse;whiteSpace=wrap;html=1;aspect=fixed;labelBackgroundColor=none;rounded=0;opacity=5;movable=1;resizable=1;rotatable=1;deletable=1;editable=1;locked=0;connectable=1;" vertex="1" parent="1">
          <mxGeometry x="540" y="240" width="30" height="30" as="geometry" />
        </mxCell>
        <mxCell id="sveesTRRniiYQOb-pHVm-159" value="" style="ellipse;whiteSpace=wrap;html=1;aspect=fixed;labelBackgroundColor=none;rounded=0;opacity=5;movable=1;resizable=1;rotatable=1;deletable=1;editable=1;locked=0;connectable=1;" vertex="1" parent="1">
          <mxGeometry x="420" y="240" width="30" height="30" as="geometry" />
        </mxCell>
        <mxCell id="sveesTRRniiYQOb-pHVm-161" value="" style="ellipse;whiteSpace=wrap;html=1;aspect=fixed;labelBackgroundColor=none;rounded=0;opacity=5;movable=1;resizable=1;rotatable=1;deletable=1;editable=1;locked=0;connectable=1;" vertex="1" parent="1">
          <mxGeometry x="460" y="240" width="30" height="30" as="geometry" />
        </mxCell>
        <mxCell id="sveesTRRniiYQOb-pHVm-163" value="" style="ellipse;whiteSpace=wrap;html=1;aspect=fixed;labelBackgroundColor=none;rounded=0;opacity=5;movable=1;resizable=1;rotatable=1;deletable=1;editable=1;locked=0;connectable=1;" vertex="1" parent="1">
          <mxGeometry x="500" y="240" width="30" height="30" as="geometry" />
        </mxCell>
        <mxCell id="sveesTRRniiYQOb-pHVm-166" value="" style="ellipse;whiteSpace=wrap;html=1;aspect=fixed;labelBackgroundColor=none;rounded=0;opacity=5;movable=1;resizable=1;rotatable=1;deletable=1;editable=1;locked=0;connectable=1;" vertex="1" parent="1">
          <mxGeometry x="420" y="280" width="30" height="30" as="geometry" />
        </mxCell>
        <mxCell id="sveesTRRniiYQOb-pHVm-168" value="" style="ellipse;whiteSpace=wrap;html=1;aspect=fixed;labelBackgroundColor=none;rounded=0;opacity=5;movable=1;resizable=1;rotatable=1;deletable=1;editable=1;locked=0;connectable=1;" vertex="1" parent="1">
          <mxGeometry x="420" y="320" width="30" height="30" as="geometry" />
        </mxCell>
        <mxCell id="sveesTRRniiYQOb-pHVm-170" value="" style="ellipse;whiteSpace=wrap;html=1;aspect=fixed;labelBackgroundColor=none;rounded=0;opacity=5;movable=1;resizable=1;rotatable=1;deletable=1;editable=1;locked=0;connectable=1;" vertex="1" parent="1">
          <mxGeometry x="460" y="320" width="30" height="30" as="geometry" />
        </mxCell>
        <mxCell id="sveesTRRniiYQOb-pHVm-177" value="" style="ellipse;whiteSpace=wrap;html=1;aspect=fixed;labelBackgroundColor=none;rounded=0;opacity=5;movable=1;resizable=1;rotatable=1;deletable=1;editable=1;locked=0;connectable=1;" vertex="1" parent="1">
          <mxGeometry x="580" y="240" width="30" height="30" as="geometry" />
        </mxCell>
        <mxCell id="sveesTRRniiYQOb-pHVm-179" value="" style="ellipse;whiteSpace=wrap;html=1;aspect=fixed;labelBackgroundColor=none;rounded=0;opacity=5;movable=1;resizable=1;rotatable=1;deletable=1;editable=1;locked=0;connectable=1;" vertex="1" parent="1">
          <mxGeometry x="620" y="240" width="30" height="30" as="geometry" />
        </mxCell>
        <mxCell id="sveesTRRniiYQOb-pHVm-186" value="" style="ellipse;whiteSpace=wrap;html=1;aspect=fixed;labelBackgroundColor=none;rounded=0;opacity=5;movable=1;resizable=1;rotatable=1;deletable=1;editable=1;locked=0;connectable=1;" vertex="1" parent="1">
          <mxGeometry x="580" y="280" width="30" height="30" as="geometry" />
        </mxCell>
        <mxCell id="sveesTRRniiYQOb-pHVm-188" value="" style="ellipse;whiteSpace=wrap;html=1;aspect=fixed;labelBackgroundColor=none;rounded=0;opacity=5;movable=1;resizable=1;rotatable=1;deletable=1;editable=1;locked=0;connectable=1;" vertex="1" parent="1">
          <mxGeometry x="540" y="320" width="30" height="30" as="geometry" />
        </mxCell>
        <mxCell id="sveesTRRniiYQOb-pHVm-191" value="" style="ellipse;whiteSpace=wrap;html=1;aspect=fixed;labelBackgroundColor=none;rounded=0;opacity=5;movable=1;resizable=1;rotatable=1;deletable=1;editable=1;locked=0;connectable=1;" vertex="1" parent="1">
          <mxGeometry x="580" y="320" width="30" height="30" as="geometry" />
        </mxCell>
        <mxCell id="sveesTRRniiYQOb-pHVm-195" value="" style="ellipse;whiteSpace=wrap;html=1;aspect=fixed;labelBackgroundColor=none;rounded=0;opacity=5;movable=1;resizable=1;rotatable=1;deletable=1;editable=1;locked=0;connectable=1;" vertex="1" parent="1">
          <mxGeometry x="620" y="320" width="30" height="30" as="geometry" />
        </mxCell>
        <mxCell id="sveesTRRniiYQOb-pHVm-203" value="" style="ellipse;whiteSpace=wrap;html=1;aspect=fixed;labelBackgroundColor=none;rounded=0;opacity=5;movable=1;resizable=1;rotatable=1;deletable=1;editable=1;locked=0;connectable=1;" vertex="1" parent="1">
          <mxGeometry x="460" y="360" width="30" height="30" as="geometry" />
        </mxCell>
        <mxCell id="sveesTRRniiYQOb-pHVm-144" style="edgeStyle=orthogonalEdgeStyle;rounded=0;orthogonalLoop=1;jettySize=auto;html=1;exitX=1;exitY=0.5;exitDx=0;exitDy=0;entryX=0.5;entryY=1;entryDx=0;entryDy=0;strokeWidth=0.5;endArrow=none;endFill=0;" edge="1" parent="1" source="sveesTRRniiYQOb-pHVm-92" target="sveesTRRniiYQOb-pHVm-101">
          <mxGeometry relative="1" as="geometry" />
        </mxCell>
        <mxCell id="sveesTRRniiYQOb-pHVm-145" value="2" style="edgeLabel;html=1;align=center;verticalAlign=middle;resizable=0;points=[];fontSize=7;" vertex="1" connectable="0" parent="sveesTRRniiYQOb-pHVm-144">
          <mxGeometry y="-2" relative="1" as="geometry">
            <mxPoint x="-3" y="-2" as="offset" />
          </mxGeometry>
        </mxCell>
        <mxCell id="sveesTRRniiYQOb-pHVm-152" style="edgeStyle=orthogonalEdgeStyle;rounded=0;orthogonalLoop=1;jettySize=auto;html=1;exitX=0.98;exitY=0.66;exitDx=0;exitDy=0;entryX=0.5;entryY=1;entryDx=0;entryDy=0;strokeWidth=0.5;endArrow=none;endFill=0;exitPerimeter=0;" edge="1" parent="1" source="sveesTRRniiYQOb-pHVm-92" target="sveesTRRniiYQOb-pHVm-112">
          <mxGeometry relative="1" as="geometry">
            <Array as="points">
              <mxPoint x="635" y="340" />
            </Array>
          </mxGeometry>
        </mxCell>
        <mxCell id="sveesTRRniiYQOb-pHVm-153" value="4" style="edgeLabel;html=1;align=center;verticalAlign=middle;resizable=0;points=[];fontSize=7;" vertex="1" connectable="0" parent="sveesTRRniiYQOb-pHVm-152">
          <mxGeometry x="-0.0124" y="1" relative="1" as="geometry">
            <mxPoint as="offset" />
          </mxGeometry>
        </mxCell>
        <mxCell id="sveesTRRniiYQOb-pHVm-92" value="+2" style="ellipse;whiteSpace=wrap;html=1;aspect=fixed;labelBackgroundColor=none;rounded=0;fillColor=#dae8fc;strokeColor=#6c8ebf;" vertex="1" parent="1">
          <mxGeometry x="500" y="320" width="30" height="30" as="geometry" />
        </mxCell>
        <mxCell id="sveesTRRniiYQOb-pHVm-142" style="edgeStyle=orthogonalEdgeStyle;rounded=0;orthogonalLoop=1;jettySize=auto;html=1;exitX=1;exitY=0.5;exitDx=0;exitDy=0;entryX=0;entryY=0.5;entryDx=0;entryDy=0;endArrow=none;endFill=0;strokeWidth=0.5;" edge="1" parent="1" source="sveesTRRniiYQOb-pHVm-101" target="sveesTRRniiYQOb-pHVm-112">
          <mxGeometry relative="1" as="geometry" />
        </mxCell>
        <mxCell id="sveesTRRniiYQOb-pHVm-143" value="2" style="edgeLabel;html=1;align=center;verticalAlign=middle;resizable=0;points=[];fontSize=7;" vertex="1" connectable="0" parent="sveesTRRniiYQOb-pHVm-142">
          <mxGeometry x="-0.0571" y="1" relative="1" as="geometry">
            <mxPoint as="offset" />
          </mxGeometry>
        </mxCell>
        <mxCell id="sveesTRRniiYQOb-pHVm-101" value="+3" style="ellipse;whiteSpace=wrap;html=1;aspect=fixed;labelBackgroundColor=none;rounded=0;fillColor=#dae8fc;strokeColor=#6c8ebf;" vertex="1" parent="1">
          <mxGeometry x="540" y="280" width="30" height="30" as="geometry" />
        </mxCell>
        <mxCell id="sveesTRRniiYQOb-pHVm-112" value="E" style="ellipse;whiteSpace=wrap;html=1;aspect=fixed;labelBackgroundColor=none;rounded=0;fillColor=#d5e8d4;strokeColor=#82b366;" vertex="1" parent="1">
          <mxGeometry x="620" y="280" width="30" height="30" as="geometry" />
        </mxCell>
        <mxCell id="sveesTRRniiYQOb-pHVm-135" style="edgeStyle=orthogonalEdgeStyle;rounded=0;orthogonalLoop=1;jettySize=auto;html=1;exitX=1;exitY=0.5;exitDx=0;exitDy=0;entryX=0;entryY=0.5;entryDx=0;entryDy=0;endArrow=none;endFill=0;strokeWidth=0.5;" edge="1" parent="1" source="sveesTRRniiYQOb-pHVm-118" target="sveesTRRniiYQOb-pHVm-92">
          <mxGeometry relative="1" as="geometry" />
        </mxCell>
        <mxCell id="sveesTRRniiYQOb-pHVm-136" value="3" style="edgeLabel;html=1;align=center;verticalAlign=middle;resizable=0;points=[];fontSize=7;" vertex="1" connectable="0" parent="sveesTRRniiYQOb-pHVm-135">
          <mxGeometry x="0.0038" y="-1" relative="1" as="geometry">
            <mxPoint x="-1" y="-1" as="offset" />
          </mxGeometry>
        </mxCell>
        <mxCell id="sveesTRRniiYQOb-pHVm-138" style="edgeStyle=orthogonalEdgeStyle;rounded=0;orthogonalLoop=1;jettySize=auto;html=1;exitX=0.5;exitY=0;exitDx=0;exitDy=0;entryX=0.5;entryY=0;entryDx=0;entryDy=0;endArrow=none;endFill=0;strokeWidth=0.5;" edge="1" parent="1" source="sveesTRRniiYQOb-pHVm-118" target="sveesTRRniiYQOb-pHVm-101">
          <mxGeometry relative="1" as="geometry" />
        </mxCell>
        <mxCell id="sveesTRRniiYQOb-pHVm-139" value="7" style="edgeLabel;html=1;align=center;verticalAlign=middle;resizable=0;points=[];fontSize=7;" vertex="1" connectable="0" parent="sveesTRRniiYQOb-pHVm-138">
          <mxGeometry x="0.2072" y="1" relative="1" as="geometry">
            <mxPoint x="13" as="offset" />
          </mxGeometry>
        </mxCell>
        <mxCell id="sveesTRRniiYQOb-pHVm-140" style="edgeStyle=orthogonalEdgeStyle;rounded=0;orthogonalLoop=1;jettySize=auto;html=1;exitX=0.336;exitY=0.033;exitDx=0;exitDy=0;entryX=0.5;entryY=0;entryDx=0;entryDy=0;exitPerimeter=0;strokeWidth=0.5;endArrow=none;endFill=0;" edge="1" parent="1" source="sveesTRRniiYQOb-pHVm-118" target="sveesTRRniiYQOb-pHVm-112">
          <mxGeometry relative="1" as="geometry">
            <Array as="points">
              <mxPoint x="430" y="250" />
              <mxPoint x="635" y="250" />
            </Array>
          </mxGeometry>
        </mxCell>
        <mxCell id="sveesTRRniiYQOb-pHVm-141" value="9" style="edgeLabel;align=center;verticalAlign=middle;resizable=0;points=[];labelBackgroundColor=default;labelBorderColor=none;textShadow=0;html=1;fontSize=7;" vertex="1" connectable="0" parent="sveesTRRniiYQOb-pHVm-140">
          <mxGeometry x="0.3339" y="2" relative="1" as="geometry">
            <mxPoint x="-31" y="1" as="offset" />
          </mxGeometry>
        </mxCell>
        <mxCell id="sveesTRRniiYQOb-pHVm-118" value="B" style="ellipse;whiteSpace=wrap;html=1;aspect=fixed;labelBackgroundColor=none;rounded=0;fillColor=#d5e8d4;strokeColor=#82b366;" vertex="1" parent="1">
          <mxGeometry x="420" y="360" width="30" height="30" as="geometry" />
        </mxCell>
        <mxCell id="sveesTRRniiYQOb-pHVm-154" style="edgeStyle=orthogonalEdgeStyle;rounded=0;orthogonalLoop=1;jettySize=auto;html=1;exitX=0.018;exitY=0.645;exitDx=0;exitDy=0;entryX=0.019;entryY=0.347;entryDx=0;entryDy=0;exitPerimeter=0;entryPerimeter=0;strokeWidth=0.5;endArrow=none;endFill=0;" edge="1" parent="1" source="sveesTRRniiYQOb-pHVm-92" target="sveesTRRniiYQOb-pHVm-92">
          <mxGeometry relative="1" as="geometry">
            <Array as="points">
              <mxPoint x="480" y="339" />
              <mxPoint x="480" y="330" />
              <mxPoint x="501" y="330" />
            </Array>
          </mxGeometry>
        </mxCell>
        <mxCell id="sveesTRRniiYQOb-pHVm-155" value="2" style="edgeLabel;html=1;align=center;verticalAlign=middle;resizable=0;points=[];fontSize=7;" vertex="1" connectable="0" parent="sveesTRRniiYQOb-pHVm-154">
          <mxGeometry x="0.1975" y="1" relative="1" as="geometry">
            <mxPoint as="offset" />
          </mxGeometry>
        </mxCell>
        <mxCell id="sveesTRRniiYQOb-pHVm-156" style="edgeStyle=orthogonalEdgeStyle;rounded=0;orthogonalLoop=1;jettySize=auto;html=1;exitX=0.347;exitY=0.017;exitDx=0;exitDy=0;exitPerimeter=0;strokeWidth=0.5;endArrow=none;endFill=0;" edge="1" parent="1" source="sveesTRRniiYQOb-pHVm-101">
          <mxGeometry relative="1" as="geometry">
            <mxPoint x="560" y="280" as="targetPoint" />
            <Array as="points">
              <mxPoint x="550" y="254" />
              <mxPoint x="560" y="254" />
            </Array>
          </mxGeometry>
        </mxCell>
        <mxCell id="sveesTRRniiYQOb-pHVm-157" value="2" style="edgeLabel;html=1;align=center;verticalAlign=middle;resizable=0;points=[];fontSize=7;" vertex="1" connectable="0" parent="sveesTRRniiYQOb-pHVm-156">
          <mxGeometry x="-0.3414" relative="1" as="geometry">
            <mxPoint x="5" y="-6" as="offset" />
          </mxGeometry>
        </mxCell>
      </root>
    </mxGraphModel>
  </diagram>
</mxfile>
